<svg id="レイヤー_1" data-name="レイヤー 1" xmlns="http://www.w3.org/2000/svg" viewBox="0 0 400 400"><title>アートボード 1</title><path d="M351,129.69c1,.15,1.86.32,2.68.38a35.7,35.7,0,0,1,32.6,30.37,37.16,37.16,0,0,1,.39,5.27q0,30.75,0,61.49a35.84,35.84,0,0,1-31.31,35.3,37.21,37.21,0,0,1-4.23.19H331.63c-.82,0-1.65.09-2.77.16v2.66c0,5.37,0,10.74,0,16.11a34.06,34.06,0,0,1-22.66,32,35.16,35.16,0,0,1-11.86,2q-52.9,0-105.8,0a6.16,6.16,0,0,0-4.82,2c-12.94,13.05-26,26-38.94,39a8.45,8.45,0,0,1-6.39,2.81,7.47,7.47,0,0,1-7.23-6.71c-.06-.77,0-1.56,0-2.33v-32c0-.64,0-1.27,0-1.91a1,1,0,0,0-1.08-1.05c-.56,0-1.13,0-1.69,0q-9.23,0-18.45,0a33.82,33.82,0,0,1-32.72-26.64A45.14,45.14,0,0,1,76.3,280c-.13-5.65,0-11.31,0-17,0-.64,0-1.28-.05-1.91A1.14,1.14,0,0,0,75,259.93c-.63,0-1.27-.05-1.91-.05-7.21,0-14.41,0-21.62,0a35.6,35.6,0,0,1-25.38-10,34.08,34.08,0,0,1-11.07-25.11c-.13-20.92-.1-41.84,0-62.76.07-17.38,13.66-32.62,30.89-34.81,2.58-.32,5.19-.4,8-.61.07-1,.2-1.9.19-2.86a67.26,67.26,0,0,1,1.55-16.62A56,56,0,0,1,101,64.81a60.45,60.45,0,0,1,9.49-.78q92.13-.08,184.26,0A56,56,0,0,1,350,109.72,62.93,62.93,0,0,1,351,123C351,125.18,351,127.36,351,129.69ZM67.12,146.11v3q.07,35.4.16,70.82c0,1.06.12,2.12.18,3.17a25.2,25.2,0,0,0,25.36,23.36c27.07.07,54.15,0,81.22,0,.69,0,1.38-.07,2.06-.1.35-.79.65-1.42.91-2.07L189.85,212c1.59-4,3.14-8,4.79-12a7.9,7.9,0,0,1,9.46-4.87,7.65,7.65,0,0,1,5.62,5q4,10.16,8.07,20.28c3.24,8.14,6.49,16.27,9.69,24.42.48,1.2,1.08,1.91,2.46,1.7a9,9,0,0,1,1.27,0q39.35,0,78.68,0a37.19,37.19,0,0,0,5.06-.35,25,25,0,0,0,21.29-23c.29-5.64.24-11.3.26-16.95q.09-28.74.13-57.47v-2.57C246.69,146.07,157,146,67.12,146.11ZM91.56,263a11.91,11.91,0,0,0-.13,1.2c0,5.94-.1,11.88,0,17.81a18.43,18.43,0,0,0,15,17.38,32,32,0,0,0,5.27.39c8.62,0,17.25,0,25.87,0a11.12,11.12,0,0,1,2.94.29,7.55,7.55,0,0,1,5.55,7.62c0,7.42,0,14.85,0,22.27,0,.73.07,1.46.13,2.64.93-.88,1.49-1.39,2-1.93,9.15-9.15,18.34-18.25,27.41-27.47a11,11,0,0,1,8.48-3.48q53.66.12,107.3,0c1.21,0,2.41,0,3.61,0a18.49,18.49,0,0,0,17.72-14.9,33.14,33.14,0,0,0,.67-6.51c0-4-.27-8-.36-12.05-.07-3.37.28-3.31-3.4-3.31H224.9c-.85,0-1.7,0-2.54,0a8.17,8.17,0,0,1-7.43-5.12c-.26-.58-.49-1.18-.72-1.77L203,227.88c-.19-.48-.48-.92-.87-1.65-.39.82-.65,1.3-.85,1.8-1.55,3.87-3.07,7.75-4.61,11.63q-3.55,9-7.12,17.93c-1.46,3.65-4.3,5.25-8.11,5.38-.49,0-1,0-1.48,0H91.56ZM313.3,129.77a8.24,8.24,0,0,0,.21-1.28c0-3.11.14-6.23,0-9.33a18.41,18.41,0,0,0-14.1-17.07,27.6,27.6,0,0,0-6.3-.61q-90.52,0-181,0c-.92,0-1.84,0-2.76,0a18.61,18.61,0,0,0-17.83,18.32c0,2.62,0,5.23,0,7.85,0,.67.11,1.35.18,2.11Z"/><path d="M160,196.41c0,3.46,0,6.93,0,10.39-.16,12.32-8.43,22.37-20.54,24.45A24.39,24.39,0,0,1,111,211a29.81,29.81,0,0,1-.35-4.42c0-6.85,0-13.7,0-20.55A24.71,24.71,0,0,1,160,185c.12,3.81,0,7.63,0,11.44Zm-16.32-13.84a12.58,12.58,0,1,0-12.46,12.6A12.6,12.6,0,0,0,143.72,182.57Z"/><path d="M294.53,196.48c0,3.53,0,7.07,0,10.6a24.71,24.71,0,0,1-48.94,4.69,26.13,26.13,0,0,1-.48-4.84q-.08-10.38,0-20.77a24.86,24.86,0,0,1,25.82-24.86,24.45,24.45,0,0,1,23.6,23.95c.07,3.74,0,7.49,0,11.23Zm-16.33-13.8a12.53,12.53,0,1,0-12.52,12.49A12.46,12.46,0,0,0,278.2,182.68Z"/></svg>